<svg xmlns="http://www.w3.org/2000/svg" viewBox="0 0 800 280"
     preserveAspectRatio="xMidYMid meet"
     shape-rendering="crispEdges"
     role="img"
     aria-label="Pixel-art deep space vista: a tiny astronaut drifts past a sunset-gradient gas giant, a ringed planet, a pixel galaxy spiral, and scattered moons.">

  <defs>
    <linearGradient id="space" x1="0" y1="0" x2="0" y2="1">
      <stop offset="0%"   stop-color="#04031a"/>
      <stop offset="60%"  stop-color="#0a0824"/>
      <stop offset="100%" stop-color="#140a2a"/>
    </linearGradient>

    <g id="star">
      <rect x="0" y="0" width="2" height="2" fill="#ffffff"/>
    </g>
    <g id="bigstar">
      <rect x="2" y="0" width="2" height="6" fill="#fff"/>
      <rect x="0" y="2" width="6" height="2" fill="#fff"/>
    </g>
    <g id="dust">
      <rect x="0" y="0" width="2" height="2"/>
    </g>
    <g id="twinkle">
      <rect x="2" y="0" width="2" height="6" fill="#ffd34d"/>
      <rect x="0" y="2" width="6" height="2" fill="#ffd34d"/>
    </g>
  </defs>

  <!-- ============ DEEP SPACE BACKGROUND ============ -->
  <rect width="800" height="280" fill="url(#space)"/>

  <!-- ============ DUSTY NEBULA WASHES ============ -->
  <g opacity="0.22">
    <rect x="40"  y="60"  width="280" height="120" fill="#5a2a8c"/>
    <rect x="60"  y="80"  width="240" height="80"  fill="#7a3ec4"/>
    <rect x="100" y="100" width="180" height="40"  fill="#b54aa6"/>
  </g>
  <g opacity="0.18">
    <rect x="380" y="160" width="220" height="120" fill="#3a4dc4"/>
  </g>
  <g opacity="0.14">
    <rect x="500" y="0"   width="280" height="80"  fill="#7a3ec4"/>
  </g>

  <!-- ============ DENSE STARFIELD (background, faint) ============ -->
  <g fill="#ffffff" opacity="0.55">
    <rect x="14"  y="10" width="1" height="1"/>
    <rect x="32"  y="38" width="1" height="1"/>
    <rect x="58"  y="22" width="1" height="1"/>
    <rect x="78"  y="56" width="1" height="1"/>
    <rect x="104" y="14" width="1" height="1"/>
    <rect x="126" y="42" width="1" height="1"/>
    <rect x="148" y="28" width="1" height="1"/>
    <rect x="172" y="6"  width="1" height="1"/>
    <rect x="196" y="62" width="1" height="1"/>
    <rect x="218" y="34" width="1" height="1"/>
    <rect x="242" y="50" width="1" height="1"/>
    <rect x="268" y="20" width="1" height="1"/>
    <rect x="290" y="46" width="1" height="1"/>
    <rect x="316" y="8"  width="1" height="1"/>
    <rect x="338" y="38" width="1" height="1"/>
    <rect x="362" y="56" width="1" height="1"/>
    <rect x="384" y="22" width="1" height="1"/>
    <rect x="408" y="48" width="1" height="1"/>
    <rect x="432" y="14" width="1" height="1"/>
    <rect x="456" y="40" width="1" height="1"/>
    <rect x="478" y="60" width="1" height="1"/>
    <rect x="502" y="26" width="1" height="1"/>
    <rect x="526" y="52" width="1" height="1"/>
    <rect x="548" y="14" width="1" height="1"/>
    <rect x="572" y="44" width="1" height="1"/>
    <rect x="596" y="30" width="1" height="1"/>
    <rect x="618" y="58" width="1" height="1"/>
    <rect x="642" y="20" width="1" height="1"/>
    <rect x="664" y="48" width="1" height="1"/>
    <rect x="688" y="34" width="1" height="1"/>
    <rect x="710" y="60" width="1" height="1"/>
    <rect x="732" y="22" width="1" height="1"/>
    <rect x="754" y="50" width="1" height="1"/>
    <rect x="776" y="16" width="1" height="1"/>
    <rect x="22"  y="86"  width="1" height="1"/>
    <rect x="46"  y="112" width="1" height="1"/>
    <rect x="70"  y="98"  width="1" height="1"/>
    <rect x="94"  y="124" width="1" height="1"/>
    <rect x="118" y="86"  width="1" height="1"/>
    <rect x="142" y="112" width="1" height="1"/>
    <rect x="166" y="100" width="1" height="1"/>
    <rect x="188" y="124" width="1" height="1"/>
    <rect x="214" y="92"  width="1" height="1"/>
    <rect x="240" y="118" width="1" height="1"/>
    <rect x="264" y="80"  width="1" height="1"/>
    <rect x="286" y="106" width="1" height="1"/>
    <rect x="310" y="92"  width="1" height="1"/>
    <rect x="334" y="120" width="1" height="1"/>
    <rect x="358" y="84"  width="1" height="1"/>
    <rect x="380" y="110" width="1" height="1"/>
    <rect x="404" y="98"  width="1" height="1"/>
    <rect x="428" y="124" width="1" height="1"/>
    <rect x="452" y="86"  width="1" height="1"/>
    <rect x="476" y="118" width="1" height="1"/>
    <rect x="500" y="92"  width="1" height="1"/>
    <rect x="524" y="120" width="1" height="1"/>
    <rect x="548" y="80"  width="1" height="1"/>
    <rect x="572" y="106" width="1" height="1"/>
    <rect x="598" y="94"  width="1" height="1"/>
    <rect x="624" y="124" width="1" height="1"/>
    <rect x="650" y="86"  width="1" height="1"/>
    <rect x="674" y="112" width="1" height="1"/>
    <rect x="704" y="98"  width="1" height="1"/>
    <rect x="730" y="120" width="1" height="1"/>
    <rect x="756" y="84"  width="1" height="1"/>
    <rect x="780" y="110" width="1" height="1"/>
  </g>

  <!-- ============ MID STARFIELD (slightly brighter) ============ -->
  <g>
    <use href="#star" x="40"  y="20" ><animate attributeName="opacity" values="0.3;1;0.3" dur="3.1s" repeatCount="indefinite"/></use>
    <use href="#star" x="92"  y="48" ><animate attributeName="opacity" values="0.3;1;0.3" dur="2.4s" begin="0.3s" repeatCount="indefinite"/></use>
    <use href="#star" x="200" y="36" ><animate attributeName="opacity" values="0.3;1;0.3" dur="2.7s" begin="1.1s" repeatCount="indefinite"/></use>
    <use href="#star" x="246" y="10" ><animate attributeName="opacity" values="0.3;1;0.3" dur="3.2s" begin="0.4s" repeatCount="indefinite"/></use>
    <use href="#star" x="296" y="60" ><animate attributeName="opacity" values="0.3;1;0.3" dur="4.0s" begin="0.8s" repeatCount="indefinite"/></use>
    <use href="#star" x="350" y="24" ><animate attributeName="opacity" values="0.3;1;0.3" dur="2.9s" begin="1.4s" repeatCount="indefinite"/></use>
    <use href="#star" x="412" y="14" ><animate attributeName="opacity" values="0.3;1;0.3" dur="3.4s" begin="0.2s" repeatCount="indefinite"/></use>
    <use href="#star" x="478" y="32" ><animate attributeName="opacity" values="0.3;1;0.3" dur="2.6s" begin="1.0s" repeatCount="indefinite"/></use>
    <use href="#star" x="528" y="50" ><animate attributeName="opacity" values="0.3;1;0.3" dur="3.6s" begin="0.5s" repeatCount="indefinite"/></use>
    <use href="#star" x="588" y="18" ><animate attributeName="opacity" values="0.2;1;0.2" dur="3.0s" begin="0.7s" repeatCount="indefinite"/></use>
    <use href="#star" x="618" y="76" ><animate attributeName="opacity" values="0.3;1;0.3" dur="3.3s" begin="1.2s" repeatCount="indefinite"/></use>
    <use href="#star" x="724" y="40" ><animate attributeName="opacity" values="0.3;1;0.3" dur="2.5s" begin="0.9s" repeatCount="indefinite"/></use>
    <use href="#star" x="760" y="14" ><animate attributeName="opacity" values="0.3;1;0.3" dur="3.7s" begin="1.6s" repeatCount="indefinite"/></use>
    <use href="#star" x="20"  y="80" ><animate attributeName="opacity" values="0.3;1;0.3" dur="3.5s" begin="2.0s" repeatCount="indefinite"/></use>
    <use href="#star" x="68"  y="64" ><animate attributeName="opacity" values="0.3;1;0.3" dur="3.0s" begin="2.4s" repeatCount="indefinite"/></use>
    <use href="#star" x="430" y="80" ><animate attributeName="opacity" values="0.3;1;0.3" dur="2.8s" begin="0.8s" repeatCount="indefinite"/></use>
    <use href="#star" x="382" y="48" ><animate attributeName="opacity" values="0.3;1;0.3" dur="3.3s" begin="1.7s" repeatCount="indefinite"/></use>
    <use href="#star" x="320" y="118"><animate attributeName="opacity" values="0.3;1;0.3" dur="3.4s" begin="1.3s" repeatCount="indefinite"/></use>
    <use href="#bigstar" x="340" y="140"><animate attributeName="opacity" values="0.4;1;0.4" dur="4.2s" repeatCount="indefinite"/></use>
    <use href="#bigstar" x="490" y="100"><animate attributeName="opacity" values="0.4;1;0.4" dur="3.8s" begin="1.5s" repeatCount="indefinite"/></use>
    <use href="#bigstar" x="468" y="220"><animate attributeName="opacity" values="0.4;1;0.4" dur="3.6s" begin="0.8s" repeatCount="indefinite"/></use>
    <use href="#bigstar" x="60"  y="160"><animate attributeName="opacity" values="0.4;1;0.4" dur="4.0s" begin="2.1s" repeatCount="indefinite"/></use>
  </g>

  <!-- ============ DECORATIVE TWINKLES (cross sparkles) ============ -->
  <g>
    <use href="#twinkle" x="80"  y="200"><animate attributeName="opacity" values="0;1;0" dur="2.2s" begin="0s"   repeatCount="indefinite"/></use>
    <use href="#twinkle" x="180" y="220"><animate attributeName="opacity" values="0;1;0" dur="2.4s" begin="1.2s" repeatCount="indefinite"/></use>
    <use href="#twinkle" x="370" y="180"><animate attributeName="opacity" values="0;1;0" dur="2.0s" begin="0.5s" repeatCount="indefinite"/></use>
    <use href="#twinkle" x="500" y="120"><animate attributeName="opacity" values="0;1;0" dur="2.6s" begin="1.8s" repeatCount="indefinite"/></use>
    <use href="#twinkle" x="640" y="60" ><animate attributeName="opacity" values="0;1;0" dur="2.4s" begin="0.8s" repeatCount="indefinite"/></use>
    <use href="#twinkle" x="120" y="60" ><animate attributeName="opacity" values="0;1;0" dur="2.8s" begin="2.1s" repeatCount="indefinite"/></use>
  </g>

  <!-- ============ PIXEL GALAXY SPIRAL (upper-left focal cluster) ============ -->
  <g>
    <!-- outer purple halo -->
    <ellipse cx="170" cy="85" rx="100" ry="38" fill="#3a1860" opacity="0.45"/>
    <ellipse cx="170" cy="85" rx="80"  ry="30" fill="#5a2a8c" opacity="0.7"/>
    <ellipse cx="170" cy="85" rx="62"  ry="22" fill="#7a3ec4"/>
    <ellipse cx="170" cy="85" rx="46"  ry="16" fill="#9d4ad6"/>
    <ellipse cx="170" cy="85" rx="32"  ry="10" fill="#c44ad6"/>
    <ellipse cx="170" cy="85" rx="20"  ry="6"  fill="#e57aff"/>
    <ellipse cx="170" cy="85" rx="10"  ry="4"  fill="#ffd4ff"/>
    <!-- bright hot core (pulses) -->
    <rect x="166" y="83" width="8" height="4" fill="#ffffff">
      <animate attributeName="opacity" values="1;0.55;1" dur="2.2s" repeatCount="indefinite"/>
    </rect>
    <!-- arm extensions to suggest spiral motion -->
    <rect x="76"  y="86"  width="14" height="2" fill="#7a3ec4"/>
    <rect x="92"  y="84"  width="14" height="2" fill="#9d4ad6"/>
    <rect x="108" y="82"  width="14" height="2" fill="#c44ad6" opacity="0.85"/>
    <rect x="248" y="84"  width="14" height="2" fill="#7a3ec4"/>
    <rect x="232" y="86"  width="14" height="2" fill="#9d4ad6"/>
    <rect x="216" y="88"  width="14" height="2" fill="#c44ad6" opacity="0.85"/>
    <!-- bright sparkle stars within / around the galaxy -->
    <rect x="120" y="72" width="2" height="2" fill="#ffffff">
      <animate attributeName="opacity" values="0.4;1;0.4" dur="2.6s" repeatCount="indefinite"/>
    </rect>
    <rect x="200" y="76" width="2" height="2" fill="#ffd4ff">
      <animate attributeName="opacity" values="0.4;1;0.4" dur="3.0s" begin="0.8s" repeatCount="indefinite"/>
    </rect>
    <rect x="148" y="98" width="2" height="2" fill="#6dd3ff">
      <animate attributeName="opacity" values="0.4;1;0.4" dur="2.4s" begin="1.4s" repeatCount="indefinite"/>
    </rect>
    <rect x="190" y="96" width="2" height="2" fill="#ffffff">
      <animate attributeName="opacity" values="0.4;1;0.4" dur="2.8s" begin="0.4s" repeatCount="indefinite"/>
    </rect>
    <rect x="160" y="74" width="2" height="2" fill="#ffd4ff">
      <animate attributeName="opacity" values="0.4;1;0.4" dur="3.2s" begin="1.0s" repeatCount="indefinite"/>
    </rect>
    <rect x="180" y="92" width="2" height="2" fill="#6dd3ff">
      <animate attributeName="opacity" values="0.4;1;0.4" dur="2.6s" begin="1.6s" repeatCount="indefinite"/>
    </rect>
  </g>

  <!-- ============ SATURN-STYLE RINGED PLANET (mid-upper) ============ -->
  <g>
    <!-- back of ring (drawn first) -->
    <rect x="396" y="48" width="92" height="2" fill="#a85230"/>
    <rect x="402" y="50" width="80" height="1" fill="#d96a3d" opacity="0.7"/>
    <!-- planet body -->
    <rect x="432" y="38" width="20" height="2" fill="#e0c4ff"/>
    <rect x="426" y="40" width="32" height="2" fill="#c4a4f0"/>
    <rect x="422" y="42" width="40" height="2" fill="#a888d8"/>
    <rect x="420" y="44" width="44" height="2" fill="#8a6cc4"/>
    <rect x="420" y="46" width="44" height="2" fill="#6a4cb0"/>
    <rect x="420" y="48" width="44" height="2" fill="#5a3ca0"/>
    <rect x="420" y="50" width="44" height="2" fill="#4a2c8c"/>
    <rect x="420" y="52" width="44" height="2" fill="#3a1c78"/>
    <rect x="422" y="54" width="40" height="2" fill="#2a1064"/>
    <rect x="426" y="56" width="32" height="2" fill="#1a0850"/>
    <rect x="432" y="58" width="20" height="2" fill="#10043c"/>
    <!-- planet surface bands (atmospheric stripes) -->
    <rect x="424" y="44" width="36" height="1" fill="#b08ce0" opacity="0.5"/>
    <rect x="424" y="50" width="36" height="1" fill="#3a1c78" opacity="0.6"/>
    <!-- front of ring (in front of lower planet body) -->
    <rect x="396" y="54" width="92" height="2" fill="#ff9b6a"/>
    <rect x="402" y="56" width="80" height="1" fill="#ffaa7a"/>
  </g>

  <!-- ============ BIG SUNSET GAS GIANT (right side, partial visibility) ============
       Center (700, 320), radius 180. Pixel-banded sunset gradient. -->
  <g>
    <!-- atmosphere halo at the top rim -->
    <rect x="650" y="136" width="100" height="2" fill="#c44ad6" opacity="0.5"/>
    <rect x="640" y="138" width="120" height="2" fill="#c44ad6" opacity="0.3"/>
    <!-- bands top-to-bottom (sunset gradient) -->
    <rect x="648" y="140" width="104" height="8"  fill="#4a1860"/>
    <rect x="624" y="148" width="152" height="8"  fill="#7a2a8c"/>
    <rect x="608" y="156" width="184" height="8"  fill="#b558bf"/>
    <rect x="596" y="164" width="204" height="8"  fill="#ed7a85"/>
    <rect x="584" y="172" width="216" height="8"  fill="#f49a6a"/>
    <rect x="576" y="180" width="224" height="8"  fill="#ffaa7a"/>
    <rect x="568" y="188" width="232" height="8"  fill="#fdc89a"/>
    <rect x="560" y="196" width="240" height="8"  fill="#fde4c4"/>
    <rect x="552" y="204" width="248" height="8"  fill="#ffeed4"/>
    <rect x="548" y="212" width="252" height="8"  fill="#ffd8a4"/>
    <rect x="544" y="220" width="256" height="8"  fill="#ffaa6a"/>
    <rect x="540" y="228" width="260" height="8"  fill="#d97050"/>
    <rect x="536" y="236" width="264" height="8"  fill="#a8492a"/>
    <rect x="532" y="244" width="268" height="8"  fill="#7a3020"/>
    <rect x="528" y="252" width="272" height="8"  fill="#5a2018"/>
    <rect x="528" y="260" width="272" height="8"  fill="#3a1018"/>
    <rect x="524" y="268" width="276" height="8"  fill="#240a14"/>
    <rect x="524" y="276" width="276" height="4"  fill="#100410"/>
    <!-- atmospheric stripes (subtle horizontal detail) -->
    <rect x="588" y="172" width="208" height="1" fill="#ffc89a" opacity="0.5"/>
    <rect x="572" y="184" width="224" height="1" fill="#fde4c4" opacity="0.4"/>
    <rect x="556" y="200" width="240" height="1" fill="#ffeed4" opacity="0.4"/>
    <rect x="546" y="216" width="252" height="1" fill="#ffd8a4" opacity="0.4"/>
    <rect x="540" y="232" width="260" height="1" fill="#a8492a" opacity="0.5"/>
    <rect x="532" y="248" width="268" height="1" fill="#5a2018" opacity="0.6"/>
  </g>

  <!-- ============ SMALL TEAL MOON (mid-distance) ============ -->
  <g>
    <rect x="376" y="194" width="8"  height="2" fill="#7adec4"/>
    <rect x="372" y="196" width="16" height="2" fill="#4adec4"/>
    <rect x="370" y="198" width="20" height="2" fill="#2db89d"/>
    <rect x="370" y="200" width="20" height="2" fill="#2db89d"/>
    <rect x="370" y="202" width="20" height="2" fill="#1a8a78"/>
    <rect x="372" y="204" width="16" height="2" fill="#0a5a4c"/>
    <rect x="376" y="206" width="8"  height="2" fill="#063828"/>
    <!-- highlight -->
    <rect x="374" y="196" width="4" height="2" fill="#a8f0d8"/>
    <rect x="372" y="198" width="4" height="2" fill="#7adec4"/>
  </g>

  <!-- ============ SMALL MARS-LIKE MOON ============ -->
  <g>
    <rect x="304" y="48" width="6"  height="2" fill="#d96a55"/>
    <rect x="302" y="50" width="10" height="2" fill="#c44a3d"/>
    <rect x="302" y="52" width="10" height="2" fill="#a83828"/>
    <rect x="302" y="54" width="10" height="2" fill="#7c2818"/>
    <rect x="304" y="56" width="6"  height="2" fill="#5a1810"/>
    <!-- speck -->
    <rect x="306" y="52" width="2" height="1" fill="#5a1810"/>
  </g>

  <!-- ============ TINY LAVENDER MOONLET ============ -->
  <g>
    <rect x="552" y="74" width="4" height="1" fill="#d4c4ff"/>
    <rect x="550" y="75" width="8" height="2" fill="#b6a4ff"/>
    <rect x="550" y="77" width="8" height="1" fill="#8a7ccc"/>
    <rect x="552" y="78" width="4" height="1" fill="#5a4c8c"/>
  </g>

  <!-- ============ TINY ORANGE MOONLET ============ -->
  <g>
    <rect x="696" y="100" width="4" height="1" fill="#ffc89a"/>
    <rect x="694" y="101" width="8" height="2" fill="#ffaa6a"/>
    <rect x="694" y="103" width="8" height="1" fill="#d97050"/>
    <rect x="696" y="104" width="4" height="1" fill="#7a3020"/>
  </g>

  <!-- ============ ASTEROIDS (drifting slowly) ============ -->
  <g>
    <g>
      <animateTransform attributeName="transform" type="translate"
        values="0,0; 18,4; 0,0" dur="48s" repeatCount="indefinite"/>
      <rect x="380" y="100" width="4" height="2" fill="#5a5a6a"/>
      <rect x="382" y="102" width="4" height="2" fill="#4a4a5a"/>
      <rect x="380" y="104" width="2" height="2" fill="#3a3a4a"/>
    </g>
    <g>
      <animateTransform attributeName="transform" type="translate"
        values="0,0; -16,-6; 0,0" dur="44s" repeatCount="indefinite"/>
      <rect x="630" y="20" width="2" height="2" fill="#5a5a6a"/>
      <rect x="628" y="22" width="4" height="2" fill="#4a4a5a"/>
      <rect x="630" y="24" width="2" height="2" fill="#3a3a4a"/>
    </g>
    <g>
      <animateTransform attributeName="transform" type="translate"
        values="0,0; 24,-4; 0,0" dur="62s" repeatCount="indefinite"/>
      <rect x="40" y="160" width="4" height="2" fill="#5a5a6a"/>
      <rect x="44" y="160" width="2" height="2" fill="#4a4a5a"/>
      <rect x="42" y="162" width="4" height="2" fill="#3a3a4a"/>
    </g>
  </g>

  <!-- ============ DISTANT SATELLITE (drifts very slowly across) ============ -->
  <g>
    <animateTransform attributeName="transform" type="translate"
      values="-30,0; 830,0" dur="180s" repeatCount="indefinite"/>
    <rect x="0"  y="22" width="4" height="4" fill="#3a3a5a"/>
    <rect x="4"  y="22" width="6" height="4" fill="#888894"/>
    <rect x="10" y="22" width="4" height="4" fill="#3a3a5a"/>
    <rect x="6"  y="20" width="2" height="2" fill="#76b900">
      <animate attributeName="opacity" values="1;0.3;1" dur="1.2s" repeatCount="indefinite"/>
    </rect>
  </g>

  <!-- ============ METEORS / SHOOTING STARS ============ -->
  <g>
    <g>
      <animate attributeName="opacity" values="0;0;1;1;0;0"
               keyTimes="0;0.40;0.42;0.55;0.57;1"
               dur="14s" repeatCount="indefinite"/>
      <animateTransform attributeName="transform" type="translate"
        values="-40,-30; -40,-30; 700,170; 900,260"
        keyTimes="0;0.40;0.55;1"
        dur="14s" repeatCount="indefinite"/>
      <rect x="0"   y="0" width="6" height="2" fill="#ffffff"/>
      <rect x="-6"  y="0" width="6" height="2" fill="#ffffff" opacity="0.6"/>
      <rect x="-12" y="0" width="6" height="2" fill="#ffffff" opacity="0.3"/>
    </g>
    <g>
      <animate attributeName="opacity" values="0;0;1;1;0;0"
               keyTimes="0;0.65;0.67;0.78;0.80;1"
               dur="19s" begin="3s" repeatCount="indefinite"/>
      <animateTransform attributeName="transform" type="translate"
        values="900,-20; 900,-20; -120,160; -200,200"
        keyTimes="0;0.65;0.80;1"
        dur="19s" begin="3s" repeatCount="indefinite"/>
      <rect x="0"  y="0" width="6" height="2" fill="#ffd34d"/>
      <rect x="6"  y="0" width="6" height="2" fill="#ffd34d" opacity="0.6"/>
      <rect x="12" y="0" width="6" height="2" fill="#ffd34d" opacity="0.3"/>
    </g>
  </g>

  <!-- ============ ASTRONAUT AGENT ============
       Sprite drawn at origin (0,0) with bbox 48x64, center ~(24,32).
       Outer group wanders along 9 waypoints with varied keyTimes.
       Inner group adds a tiny zero-g drift wobble. -->
  <g>
    <animateTransform attributeName="transform" type="translate"
      values="106,68; 226,28; 356,48; 526,8; 656,68; 616,148; 426,148; 226,138; 96,98; 106,68"
      keyTimes="0;0.10;0.22;0.34;0.45;0.56;0.66;0.76;0.88;1"
      dur="110s" repeatCount="indefinite"/>

    <g>
      <animateTransform attributeName="transform" type="translate"
        values="0,0; 1,-2; 0,1; -1,-1; 0,0"
        keyTimes="0;0.25;0.5;0.75;1"
        dur="4.0s" repeatCount="indefinite"/>

      <!-- ===== STARDUST TRAIL ===== -->
      <g>
        <use href="#dust" x="24" y="32" fill="#ffffff">
          <animate attributeName="opacity" values="0;1;0.6;0" keyTimes="0;0.15;0.7;1" dur="3.2s" repeatCount="indefinite"/>
          <animateTransform attributeName="transform" type="translate"
            values="0,0; -14,-12; -28,-22; -42,-30"
            keyTimes="0;0.33;0.66;1" dur="3.2s" repeatCount="indefinite"/>
        </use>
        <use href="#dust" x="24" y="32" fill="#6dd3ff">
          <animate attributeName="opacity" values="0;1;0.6;0" keyTimes="0;0.15;0.7;1" dur="3.2s" begin="0.5s" repeatCount="indefinite"/>
          <animateTransform attributeName="transform" type="translate"
            values="0,0; -16,8; -30,16; -46,24"
            keyTimes="0;0.33;0.66;1" dur="3.2s" begin="0.5s" repeatCount="indefinite"/>
        </use>
        <use href="#dust" x="24" y="32" fill="#ff80bf">
          <animate attributeName="opacity" values="0;1;0.6;0" keyTimes="0;0.15;0.7;1" dur="3.2s" begin="1.0s" repeatCount="indefinite"/>
          <animateTransform attributeName="transform" type="translate"
            values="0,0; -10,-16; -22,-30; -32,-44"
            keyTimes="0;0.33;0.66;1" dur="3.2s" begin="1.0s" repeatCount="indefinite"/>
        </use>
        <use href="#dust" x="24" y="32" fill="#b6a4ff">
          <animate attributeName="opacity" values="0;1;0.6;0" keyTimes="0;0.15;0.7;1" dur="3.2s" begin="1.5s" repeatCount="indefinite"/>
          <animateTransform attributeName="transform" type="translate"
            values="0,0; -18,4; -34,12; -50,18"
            keyTimes="0;0.33;0.66;1" dur="3.2s" begin="1.5s" repeatCount="indefinite"/>
        </use>
        <use href="#dust" x="24" y="32" fill="#ffd34d">
          <animate attributeName="opacity" values="0;1;0.6;0" keyTimes="0;0.15;0.7;1" dur="3.2s" begin="2.0s" repeatCount="indefinite"/>
          <animateTransform attributeName="transform" type="translate"
            values="0,0; -12,-8; -26,-14; -40,-20"
            keyTimes="0;0.33;0.66;1" dur="3.2s" begin="2.0s" repeatCount="indefinite"/>
        </use>
        <use href="#dust" x="24" y="32" fill="#d4d4f0">
          <animate attributeName="opacity" values="0;1;0.6;0" keyTimes="0;0.15;0.7;1" dur="3.2s" begin="2.5s" repeatCount="indefinite"/>
          <animateTransform attributeName="transform" type="translate"
            values="0,0; -14,14; -28,26; -42,38"
            keyTimes="0;0.33;0.66;1" dur="3.2s" begin="2.5s" repeatCount="indefinite"/>
        </use>
      </g>

      <!-- ===== BACKPACK TABS ===== -->
      <rect x="4"  y="22" width="2" height="10" fill="#888894"/>
      <rect x="42" y="22" width="2" height="10" fill="#888894"/>
      <rect x="4"  y="20" width="2" height="2"  fill="#b0b0bc"/>
      <rect x="42" y="20" width="2" height="2"  fill="#b0b0bc"/>

      <!-- ===== HELMET SHELL ===== -->
      <rect x="14" y="0"  width="20" height="4" fill="#c8c8d4"/>
      <rect x="10" y="4"  width="28" height="4" fill="#c8c8d4"/>
      <rect x="8"  y="8"  width="32" height="4" fill="#c8c8d4"/>
      <rect x="6"  y="12" width="36" height="4" fill="#c8c8d4"/>
      <rect x="6"  y="16" width="36" height="4" fill="#c8c8d4"/>
      <rect x="6"  y="20" width="36" height="4" fill="#c8c8d4"/>
      <rect x="8"  y="24" width="32" height="4" fill="#c8c8d4"/>
      <rect x="14" y="0"  width="2"  height="4" fill="#ffffff"/>
      <rect x="10" y="4"  width="2"  height="4" fill="#ffffff"/>
      <rect x="8"  y="8"  width="2"  height="4" fill="#ffffff"/>
      <rect x="6"  y="12" width="2"  height="8" fill="#ffffff"/>
      <rect x="36" y="20" width="2"  height="4" fill="#9a9aaa"/>
      <rect x="38" y="16" width="2"  height="4" fill="#9a9aaa"/>
      <rect x="40" y="12" width="2"  height="4" fill="#9a9aaa"/>

      <!-- ===== VISOR ===== -->
      <rect x="12" y="10" width="24" height="2"  fill="#0a1530"/>
      <rect x="10" y="12" width="28" height="12" fill="#0a1530"/>
      <rect x="12" y="24" width="24" height="2"  fill="#0a1530"/>
      <rect x="10" y="12" width="28" height="2"  fill="#1a2d5a"/>
      <rect x="10" y="22" width="28" height="2"  fill="#1a2d5a"/>
      <rect x="10" y="14" width="2"  height="8"  fill="#1a2d5a"/>
      <rect x="36" y="14" width="2"  height="8"  fill="#1a2d5a"/>
      <rect x="14" y="14" width="6"  height="2"  fill="#ffffff"/>
      <rect x="14" y="16" width="2"  height="4"  fill="#ffffff"/>
      <rect x="22" y="16" width="2"  height="2"  fill="#6dd3ff"/>
      <rect x="30" y="20" width="2"  height="2"  fill="#76b900">
        <animate attributeName="opacity" values="1;0.3;1" dur="1.4s" repeatCount="indefinite"/>
      </rect>

      <!-- ===== HELMET COLLAR ===== -->
      <rect x="12" y="28" width="24" height="2" fill="#7a7a8a"/>

      <!-- ===== SUIT ===== -->
      <rect x="14" y="30" width="20" height="2" fill="#d8d8e0"/>
      <rect x="8"  y="32" width="32" height="18" fill="#d8d8e0"/>
      <rect x="8"  y="32" width="2"  height="18" fill="#ffffff"/>
      <rect x="38" y="32" width="2"  height="18" fill="#b0b0bc"/>
      <rect x="20" y="36" width="8"  height="8" fill="#1a4d8c"/>
      <rect x="20" y="36" width="8"  height="2" fill="#2d6da6"/>
      <rect x="22" y="38" width="4"  height="4" fill="#d4a27f"/>
      <rect x="14" y="36" width="2"  height="2" fill="#ff4d4d">
        <animate attributeName="opacity" values="1;0.2;1" dur="1.1s" repeatCount="indefinite"/>
      </rect>
      <rect x="32" y="36" width="2"  height="2" fill="#76b900">
        <animate attributeName="opacity" values="0.3;1;0.3" dur="1.1s" repeatCount="indefinite"/>
      </rect>
      <rect x="8"  y="48" width="32" height="2" fill="#7a7a8a"/>

      <!-- ===== ARMS ===== -->
      <rect x="4"  y="32" width="4" height="4" fill="#d8d8e0"/>
      <rect x="2"  y="36" width="4" height="4" fill="#d8d8e0"/>
      <rect x="0"  y="40" width="4" height="4" fill="#d8d8e0"/>
      <rect x="0"  y="44" width="6" height="4" fill="#c8c8d4"/>
      <rect x="40" y="32" width="4" height="4" fill="#d8d8e0"/>
      <rect x="42" y="36" width="4" height="4" fill="#d8d8e0"/>
      <rect x="44" y="40" width="4" height="4" fill="#d8d8e0"/>
      <rect x="42" y="44" width="6" height="4" fill="#c8c8d4"/>

      <!-- ===== LEGS ===== -->
      <rect x="14" y="50" width="8" height="6" fill="#d8d8e0"/>
      <rect x="12" y="56" width="8" height="4" fill="#d8d8e0"/>
      <rect x="10" y="60" width="10" height="2" fill="#d8d8e0"/>
      <rect x="8"  y="62" width="12" height="3" fill="#2a2a3a"/>
      <rect x="26" y="50" width="8" height="6" fill="#d8d8e0"/>
      <rect x="28" y="56" width="8" height="4" fill="#d8d8e0"/>
      <rect x="28" y="60" width="10" height="2" fill="#d8d8e0"/>
      <rect x="28" y="62" width="12" height="3" fill="#2a2a3a"/>
    </g>
  </g>
</svg>
